<?xml version="1.0" encoding="UTF-8" standalone="no"?>
<svg
   width="64pt"
   height="64pt"
   viewBox="0 0 22.577778 22.577778"
   version="1.1"
   id="svg831"
   inkscape:version="1.1.2 (1:1.1+202202050950+0a00cf5339)"
   sodipodi:docname="29 - Invoice.svg"
   inkscape:export-filename="/media/taufikramadhan/Data/Tr Design Studio/Project Design/TR Creative Design/Icon Design/Project Hiring/Icon Icons/019 - Commerce And Shopping/5 - Send/29 - Invoice.png"
   inkscape:export-xdpi="576"
   inkscape:export-ydpi="576"
   xmlns:inkscape="http://www.inkscape.org/namespaces/inkscape"
   xmlns:sodipodi="http://sodipodi.sourceforge.net/DTD/sodipodi-0.dtd"
   xmlns="http://www.w3.org/2000/svg"
   xmlns:svg="http://www.w3.org/2000/svg"
   xmlns:rdf="http://www.w3.org/1999/02/22-rdf-syntax-ns#"
   xmlns:cc="http://creativecommons.org/ns#"
   xmlns:dc="http://purl.org/dc/elements/1.1/">
  <defs
     id="defs825">
    <pattern
       id="EMFhbasepattern"
       patternUnits="userSpaceOnUse"
       width="6"
       height="6"
       x="0"
       y="0" />
    <pattern
       id="EMFhbasepattern-9"
       patternUnits="userSpaceOnUse"
       width="6"
       height="6"
       x="0"
       y="0" />
    <pattern
       id="EMFhbasepattern-0"
       patternUnits="userSpaceOnUse"
       width="6"
       height="6"
       x="0"
       y="0" />
    <pattern
       id="EMFhbasepattern-7"
       patternUnits="userSpaceOnUse"
       width="6"
       height="6"
       x="0"
       y="0" />
    <pattern
       id="EMFhbasepattern-2"
       patternUnits="userSpaceOnUse"
       width="6"
       height="6"
       x="0"
       y="0" />
    <pattern
       id="EMFhbasepattern-98"
       patternUnits="userSpaceOnUse"
       width="6"
       height="6"
       x="0"
       y="0" />
    <pattern
       id="EMFhbasepattern-6"
       patternUnits="userSpaceOnUse"
       width="6"
       height="6"
       x="0"
       y="0" />
    <pattern
       id="EMFhbasepattern-01"
       patternUnits="userSpaceOnUse"
       width="6"
       height="6"
       x="0"
       y="0" />
    <pattern
       id="EMFhbasepattern-07"
       patternUnits="userSpaceOnUse"
       width="6"
       height="6"
       x="0"
       y="0" />
    <pattern
       id="EMFhbasepattern-8"
       patternUnits="userSpaceOnUse"
       width="6"
       height="6"
       x="0"
       y="0" />
    <pattern
       id="EMFhbasepattern-4"
       patternUnits="userSpaceOnUse"
       width="6"
       height="6"
       x="0"
       y="0" />
    <pattern
       id="EMFhbasepattern-40"
       patternUnits="userSpaceOnUse"
       width="6"
       height="6"
       x="0"
       y="0" />
    <pattern
       id="EMFhbasepattern-08"
       patternUnits="userSpaceOnUse"
       width="6"
       height="6"
       x="0"
       y="0" />
    <pattern
       id="EMFhbasepattern-04"
       patternUnits="userSpaceOnUse"
       width="6"
       height="6"
       x="0"
       y="0" />
    <pattern
       id="EMFhbasepattern-014"
       patternUnits="userSpaceOnUse"
       width="6"
       height="6"
       x="0"
       y="0" />
    <pattern
       id="EMFhbasepattern-27"
       patternUnits="userSpaceOnUse"
       width="6"
       height="6"
       x="0"
       y="0" />
    <pattern
       id="EMFhbasepattern-09"
       patternUnits="userSpaceOnUse"
       width="6"
       height="6"
       x="0"
       y="0" />
    <pattern
       id="EMFhbasepattern-5"
       patternUnits="userSpaceOnUse"
       width="6"
       height="6"
       x="0"
       y="0" />
    <pattern
       id="EMFhbasepattern-018"
       patternUnits="userSpaceOnUse"
       width="6"
       height="6"
       x="0"
       y="0" />
  </defs>
  <sodipodi:namedview
     id="base"
     pagecolor="#ffffff"
     bordercolor="#666666"
     borderopacity="1.0"
     inkscape:pageopacity="0.0"
     inkscape:pageshadow="2"
     inkscape:zoom="4.4249417"
     inkscape:cx="41.243481"
     inkscape:cy="44.746352"
     inkscape:document-units="pt"
     inkscape:current-layer="layer1"
     showgrid="false"
     units="pt"
     inkscape:window-width="1366"
     inkscape:window-height="705"
     inkscape:window-x="0"
     inkscape:window-y="31"
     inkscape:window-maximized="1"
     inkscape:pagecheckerboard="true"
     inkscape:showpageshadow="false"
     inkscape:object-paths="true"
     inkscape:snap-intersection-paths="true"
     inkscape:snap-smooth-nodes="true"
     inkscape:snap-midpoints="true"
     showguides="false"
     inkscape:snap-bbox="true"
     inkscape:bbox-nodes="true"
     inkscape:snap-nodes="false"
     inkscape:snap-global="true"
     inkscape:document-rotation="0">
    <inkscape:grid
       type="xygrid"
       id="grid1378" />
    <sodipodi:guide
       position="0.97013831,21.607643"
       orientation="78.000048,0"
       id="guide1380"
       inkscape:locked="false" />
    <sodipodi:guide
       position="0.97013831,0.97013129"
       orientation="0,78.000005"
       id="guide1382"
       inkscape:locked="false" />
    <sodipodi:guide
       position="21.607639,0.97013129"
       orientation="-78.000048,0"
       id="guide1384"
       inkscape:locked="false" />
    <sodipodi:guide
       position="21.607639,21.607643"
       orientation="0,-78.000005"
       id="guide1386"
       inkscape:locked="false" />
  </sodipodi:namedview>
  <metadata
     id="metadata828">
    <rdf:RDF>
      <cc:Work
         rdf:about="">
        <dc:format>image/svg+xml</dc:format>
        <dc:type
           rdf:resource="http://purl.org/dc/dcmitype/StillImage" />
      </cc:Work>
    </rdf:RDF>
  </metadata>
  <g
     inkscape:label="Icon"
     inkscape:groupmode="layer"
     id="layer1"
     transform="translate(0,-274.42223)">
    <path
       id="path177774"
       style="color:#000000;display:inline;fill:#000000;stroke-width:1;stroke-linecap:round;stroke-linejoin:round;stroke-miterlimit:1.5;-inkscape-stroke:none"
       d="m 17.945293,275.39236 c -1.55861,0 -2.828599,1.26999 -2.828599,2.82859 0,0.85854 0.385533,1.62999 0.992057,2.1499 -0.07772,1.12709 -1.008909,2.01207 -2.156392,2.01207 -1.198831,0 -2.164841,-0.96601 -2.164841,-2.16485 0,-1.19882 0.96601,-2.16224 2.164841,-2.16223 0.183895,-6.7e-4 0.332276,-0.15026 0.331555,-0.33416 -6.66e-4,-0.18292 -0.148619,-0.33092 -0.331555,-0.33155 -1.558606,0 -2.830545,1.26933 -2.830545,2.82794 0,1.55861 1.271939,2.83056 2.830545,2.83056 1.368774,0 2.513887,-0.98074 2.772689,-2.27536 0.369676,0.17794 0.783648,0.27824 1.220245,0.27824 1.558606,0 2.830545,-1.27194 2.830545,-2.83056 0,-1.5586 -1.271939,-2.82859 -2.830545,-2.82859 z M 3.4239503,284.97748 C 3.2615282,282.12786 2.979146,279.19241 3.1411553,276.72442 H 14.733791 c 0.183894,-6.6e-4 0.332275,-0.15025 0.331551,-0.33415 -6.66e-4,-0.18294 -0.148619,-0.33093 -0.331551,-0.33156 l -11.9339462,10e-6 c -0.1729203,-10e-6 -0.3175481,0.13195 -0.3322002,0.30425 -0.2136414,2.62035 0.1254126,5.71945 0.2925443,8.65157 0.1668622,2.92744 0.1507322,5.68492 -0.6696064,7.56135 -0.1835682,0.33318 -0.2886464,0.71879 -0.2886432,1.12467 0,1.28283 1.0464821,2.32932 2.3293163,2.32932 H 17.446014 c 1.282837,0 2.32929,-1.04649 2.329316,-2.32932 2.7e-5,-0.80238 -0.574807,-1.47795 -1.333361,-1.63242 -0.01528,-2.97612 -0.248987,-6.81556 -0.248987,-10.01937 -6.66e-4,-0.1839 -0.15026,-0.33227 -0.334155,-0.33156 -0.182935,6.7e-4 -0.330922,0.14862 -0.331551,0.33156 0,3.22262 0.231928,7.04779 0.248987,9.98557 H 4.7969609 c -0.9152051,0 -1.6629619,0.75101 -1.6629619,1.66622 0,0.54754 0.4497171,0.99726 0.9972566,0.99726 h 1.3359607 c -0.3032288,0.40528 -0.7878923,0.66569 -1.3359607,0.66569 -0.9230638,0 -1.663611,-0.73989 -1.663611,-1.66295 0,-0.29721 0.077838,-0.57647 0.2210375,-0.83246 0.9249276,-2.10339 0.9037382,-4.93498 0.7352682,-7.89062 z m 14.5213427,-8.91876 c 1.198832,0 2.164191,0.96341 2.164191,2.16223 0,1.19884 -0.965359,2.1642 -2.164191,2.1642 -1.198836,0 -2.162245,-0.96536 -2.162245,-2.1642 0,-1.19882 0.963409,-2.16223 2.162245,-2.16223 z m -0.009,0.33155 c -0.179906,0.005 -0.323812,0.15313 -0.323099,0.33415 v 0.12417 c -0.367799,0.10144 -0.643604,0.44234 -0.643604,0.83928 0,0.47499 0.39484,0.86723 0.869841,0.86723 h 0.213881 c 0.117712,0 0.201532,0.0838 0.201532,0.20153 0,0.11776 -0.08381,0.20155 -0.201532,0.20155 h -0.535746 c -0.183827,6.4e-4 -0.33227,0.15031 -0.331552,0.33413 6.66e-4,0.18282 0.148736,0.33085 0.331552,0.33156 h 0.09556 v 0.0956 c 6.66e-4,0.18292 0.149268,0.33092 0.332203,0.33155 0.183892,6.6e-4 0.333519,-0.14767 0.334151,-0.33155 v -0.12614 c 0.367127,-0.10091 0.641001,-0.43982 0.641001,-0.83667 0,-0.475 -0.392236,-0.86788 -0.867238,-0.86788 h -0.213881 c -0.117712,0 -0.204132,-0.0832 -0.204135,-0.20089 0,-0.11774 0.08642,-0.20413 0.204135,-0.20413 h 0.533083 c 0.183833,6.7e-4 0.333439,-0.14772 0.334155,-0.33156 6.66e-4,-0.18484 -0.149307,-0.33487 -0.334155,-0.33414 h -0.09296 v -0.0936 c 6.66e-4,-0.18486 -0.149298,-0.33487 -0.334151,-0.33415 -0.003,10e-6 -0.0063,-8e-5 -0.009,0 z m -13.4707784,0.99986 c -0.3630423,0 -0.6657054,0.30266 -0.6657054,0.66571 v 1.99517 c 0,0.36304 0.3026631,0.66634 0.6657054,0.66634 h 2.6634703 c 0.3630424,0 0.6637548,-0.3033 0.6637548,-0.66634 v -1.99517 c 0,-0.36305 -0.3007124,-0.66571 -0.6637548,-0.66571 z m 4.3270844,0 c -0.183831,-6.7e-4 -0.333435,0.14771 -0.334154,0.33155 -6.657e-4,0.18485 0.1493077,0.33487 0.334154,0.33416 h 1.997765 c 0.183832,-6.7e-4 0.332274,-0.15033 0.331554,-0.33416 -6.65e-4,-0.18282 -0.148737,-0.33083 -0.331554,-0.33155 z m -4.3270844,0.66571 h 2.6634703 v 1.99517 h -2.663563 z m 9.4693984,0.3322 c -0.176861,0.008 -0.317309,0.15507 -0.3166,0.33416 v 0.12353 c -0.367433,0.10059 -0.641653,0.43961 -0.641653,0.83667 0,0.47501 0.392886,0.86984 0.867886,0.86984 h 0.213235 c 0.117714,0 0.201533,0.0838 0.201533,0.20154 0,0.11775 -0.08381,0.20153 -0.201533,0.20153 h -0.535686 c -0.183828,6.6e-4 -0.332269,0.15032 -0.331551,0.33415 3.33e-4,0.18307 0.148482,0.33149 0.331551,0.3322 h 0.09621 v 0.0956 c 6.67e-4,0.1839 0.15026,0.33228 0.334151,0.33156 0.182937,-6.7e-4 0.330926,-0.14861 0.331555,-0.33156 v -0.12677 c 0.367233,-0.10081 0.641,-0.43976 0.641,-0.83667 0,-0.47501 -0.392235,-0.86725 -0.867238,-0.86725 h -0.213235 c -0.117713,0 -0.201532,-0.0865 -0.201532,-0.20413 0,-0.11774 0.08382,-0.20088 0.201532,-0.20088 h 0.535039 c 0.183321,-3.4e-4 0.331843,-0.14888 0.332199,-0.33221 6.66e-4,-0.18407 -0.148117,-0.33379 -0.332199,-0.33414 h -0.09557 v -0.0929 c 6.66e-4,-0.18389 -0.14766,-0.33352 -0.331554,-0.33415 -0.0057,-3e-5 -0.01182,-2.6e-4 -0.01754,0 z m -5.142314,0.33416 c -0.183831,-6.7e-4 -0.3334384,0.14771 -0.334154,0.33154 6.658e-4,0.18384 0.150323,0.33227 0.334154,0.33156 h 0.665706 c 0.1828126,-6.7e-4 0.3308381,-0.14874 0.3315502,-0.33156 C 9.7891607,278.87093 9.641091,278.7229 9.458276,278.7222 Z m -4.6612385,2.66085 c -0.1838313,6.7e-4 -0.3322702,0.15033 -0.3315513,0.33416 6.658e-4,0.18282 0.1487387,0.33084 0.3315513,0.33156 h 0.6657052 c 0.1838314,6.5e-4 0.3334352,-0.14772 0.3341542,-0.33156 6.657e-4,-0.18484 -0.1493077,-0.33487 -0.3341542,-0.33416 z m 1.9977684,0 c -0.1838312,6.7e-4 -0.3322736,0.15033 -0.3315546,0.33416 6.658e-4,0.18282 0.1487385,0.33084 0.3315546,0.33156 h 1.6636108 c 0.1838312,6.5e-4 0.3334352,-0.14772 0.3341541,-0.33156 6.657e-4,-0.18484 -0.1493077,-0.33487 -0.3341541,-0.33416 z m -1.9977684,1.33142 c -0.1838313,6.7e-4 -0.3322702,0.15033 -0.3315513,0.33416 3.329e-4,0.18306 0.1484823,0.33148 0.3315513,0.3322 h 6.9905575 c 0.184085,6.6e-4 0.333794,-0.14813 0.334152,-0.3322 6.65e-4,-0.18485 -0.149305,-0.33489 -0.334152,-0.33416 z m 0.6462035,1.33207 c -0.3521948,0 -0.6462035,0.29399 -0.6462035,0.64619 v 4.69765 c 0,0.35219 0.2940087,0.6462 0.6462035,0.6462 h 11.356587 c 0.352195,0 0.646204,-0.29401 0.646204,-0.6462 v -4.69765 c 0,-0.3522 -0.294009,-0.64619 -0.646204,-0.64619 z m 0.019505,0.6657 h 5.326915 v 0.6657 H 4.7969769 Z m 5.993297,0 h 2.329321 v 0.6657 h -2.329379 z m 2.995026,0 h 2.329319 v 0.6657 h -2.329319 z m -8.988323,1.33207 h 5.326915 v 3.32657 H 4.7969769 Z m 5.993297,0 h 2.329321 v 3.32657 h -2.329379 z m 2.995026,0 h 2.329319 v 3.32657 H 13.785363 Z M 5.7975489,286.71 c -0.1838279,-6.7e-4 -0.3334318,0.14773 -0.3341509,0.33155 -6.656e-4,0.18485 0.1493045,0.33488 0.3341509,0.33416 h 2.9950247 c 0.1838312,-6.7e-4 0.3322702,-0.15033 0.3315512,-0.33416 C 9.123459,286.85873 8.9753863,286.71071 8.7925736,286.71 Z m 5.9900501,0 c -0.182817,6.7e-4 -0.330843,0.14873 -0.331556,0.33155 -6.65e-4,0.18383 0.147724,0.33345 0.331556,0.33416 h 0.33415 c 0.183832,-6.7e-4 0.332274,-0.15033 0.331554,-0.33416 -6.65e-4,-0.18282 -0.148737,-0.33084 -0.331554,-0.33155 z m 2.99502,0 c -0.182812,6.7e-4 -0.330839,0.14873 -0.331551,0.33155 -6.66e-4,0.18383 0.14772,0.33345 0.331551,0.33416 h 0.334155 c 0.184084,-3.4e-4 0.332923,-0.15007 0.332202,-0.33416 -6.65e-4,-0.18306 -0.149134,-0.33119 -0.332202,-0.33155 z m -8.9850701,1.33142 c -0.1840842,-6.6e-4 -0.3337947,0.14812 -0.3341509,0.33219 -6.656e-4,0.18485 0.1493078,0.33487 0.3341509,0.33416 h 1.3314105 c 0.1838313,-6.7e-4 0.3322735,-0.15032 0.3315546,-0.33416 -3.329e-4,-0.18306 -0.1484856,-0.33148 -0.3315546,-0.33219 z m -1.3320598,2.66152 c -0.1848463,-6.7e-4 -0.3348797,0.1493 -0.3341541,0.33416 6.658e-4,0.18381 0.1503229,0.33227 0.3341541,0.33154 h 0.3315512 c 0.1838312,6.6e-4 0.3334353,-0.14773 0.3341542,-0.33154 6.656e-4,-0.18486 -0.1493077,-0.3349 -0.3341542,-0.33416 z m 1.6636142,0 c -0.1838311,6.7e-4 -0.3322734,0.15032 -0.3315544,0.33416 6.656e-4,0.18281 0.1487385,0.33083 0.3315544,0.33154 h 2.3293162 c 0.1838313,6.6e-4 0.3334352,-0.14773 0.3341541,-0.33154 6.658e-4,-0.18486 -0.1493078,-0.3349 -0.3341541,-0.33416 z m 8.3219647,0 c -0.184846,-6.7e-4 -0.334879,0.1493 -0.334155,0.33416 6.67e-4,0.18381 0.150325,0.33227 0.334155,0.33154 h 1.663614 c 0.183828,6.6e-4 0.333433,-0.14773 0.334151,-0.33154 6.65e-4,-0.18486 -0.149304,-0.3349 -0.334151,-0.33416 z m 3.661369,1.9971 c 0.555429,0 0.997276,0.44508 0.997257,1.0005 -2e-5,0.92307 -0.740548,1.66297 -1.663611,1.66297 H 5.7603895 c 0.4329981,-0.42331 0.7027618,-1.0126 0.7027618,-1.66297 0,-0.37442 -0.1255887,-0.72128 -0.3367536,-1.0005 z m -12.3148881,1.0005 c 0,0.11386 -0.011612,0.22436 -0.033151,0.33157 H 4.1313096 c -0.1877756,0 -0.3315513,-0.14379 -0.3315513,-0.33157 0,-0.55543 0.4946657,-1.0005 0.9972565,-1.0005 0.5554247,0 1.0005053,0.44507 1.0005047,1.0005 z"
       sodipodi:nodetypes="sscsscccsscssssccccccscsssscccccssscsscsssssssccssssscsccccccssssscscccsssssssssssscsccscccccccsccsssssccccccccssssscccccsssccccccccsccscccsccscccccccccssssssscscccccccccccccccccccccccccccccccsccscccsccscccsccsccccccccccsccscccsccscccsccscccsscsccscsscs" />
  </g>
</svg>
